<?xml version="1.0" encoding="UTF-8"?>
<svg viewBox="0 0 645.14246 12.034625" xmlns="http://www.w3.org/2000/svg" xmlns:xlink="http://www.w3.org/1999/xlink">
 <defs>
  <linearGradient id="b">
   <stop stop-color="#986d20" offset="0"/>
   <stop stop-color="#c29f22" offset=".5"/>
   <stop stop-color="#986b3d" offset="1"/>
  </linearGradient>
  <linearGradient id="f" x1="681.17" x2="686.62" y1="360.59" y2="362.26" gradientUnits="userSpaceOnUse">
   <stop stop-color="#986d20" offset="0"/>
   <stop stop-color="#c29f22" offset=".00303"/>
   <stop stop-color="#986b3d" offset="1"/>
  </linearGradient>
  <linearGradient id="a" x2="0" y1="368.16" y2="360.76" gradientUnits="userSpaceOnUse">
   <stop offset="0"/>
   <stop stop-color="#5f5f5f" offset=".71943"/>
   <stop offset="1"/>
  </linearGradient>
  <linearGradient id="e" x2="0" y1="372.31" y2="353" gradientUnits="userSpaceOnUse" xlink:href="#b"/>
  <linearGradient id="d" x2="0" y1="372.34" y2="353.02" gradientUnits="userSpaceOnUse" xlink:href="#b"/>
  <radialGradient id="c" cx="49.446" cy="363.13" r="13.528" gradientTransform="matrix(.61743 0 0 .34886 26.582 236.28)" gradientUnits="userSpaceOnUse">
   <stop stop-color="#fff" offset="0"/>
   <stop stop-color="#c1c1c1" offset="1"/>
  </radialGradient>
 </defs>
 <g transform="translate(-50.089 -357.53)">
  <path transform="matrix(1.0839 0 0 .73309 -48.984 99.185)" d="m686.62 360.59c0 4.5144-1.2199 8.1741-2.7247 8.1741s-2.7247-3.6597-2.7247-8.1741 1.2199-8.1741 2.7247-8.1741 2.7247 3.6597 2.7247 8.1741z" fill="url(#f)"/>
  <path d="m252.71 357.68 439.51-0.14935s0.48148 4.2617 0.48026 6.2823c-8.7e-4 1.9825-0.48026 5.7104-0.48026 5.7104h-439.82l0.30788-11.843z" fill="url(#d)" fill-rule="evenodd"/>
  <path d="m63.47 360.61s64.206-1.9667 96.131-2.4858c31.225-0.50775 93.234-0.45486 93.234-0.45486s0.23839 4.0951 0.23793 6.1157c-3.4e-4 1.9825-0.18351 5.7104-0.18351 5.7104s-61.461 0.29476-92.68-0.3884c-31.949-0.69915-96.74-3.8064-96.74-3.8064v-4.6905z" fill="url(#e)" fill-rule="evenodd"/>
  <path d="m64.473 362.96c0 1.2562 0.64632 2.3402-0.81038 3.2168-2.3543 1.4167-3.7335 1.3324-8.2137 1.3324-2.2639 0-2.6512-0.50918-4.1347-1.3324s-1.2054-1.9605-1.2054-3.2168-0.27813-2.3935 1.2054-3.2167 1.8709-1.3324 4.1347-1.3324c4.9551 0 6.2552-0.0843 8.2137 1.3324 1.3847 1.0016 0.81038 1.9605 0.81038 3.2168z" fill="url(#c)"/>
  <path d="m554.20461,364.36965h-.99974l-.13755.30283h-.89706l1.06755-1.8345h.95712l1.06755,1.8345h-.91837l-.1395-.30283m-.18406-.39669-.31387-.65946-.31194.65946h.62581" fill="#c20000"/>
  <path d="m555.53 362.84h1.1547l0.44562 1.1162 0.44368-1.1162h1.1509v1.8345h-0.71686v-1.399l-0.55607 1.399h-0.64905l-0.55413-1.399v1.399h-0.7188v-1.8345" fill="#c20000"/>
  <path d="m559.28 362.84h2.3521v0.39167h-1.4725v0.29157h1.3659v0.37416h-1.3659v0.36165h1.5151v0.41545h-2.3947v-1.8345" fill="#c20000"/>
  <path d="m562.16379,364.67248v-1.8345h1.4628c.27125,0 .47855.015.62193.0451s.25898.0859.34681.16769 .13175.17977.13175.29657c0,.10178-.0336.18979-.10079.26404s-.15952.13306-.27706.17895c-.0749.0292-.17761.0534-.30806.0726 .10465.0225.18083.045.22863.0676 .0322.015.0788.0472.1395.0963s.10327.0872.12393.11388l.42431.53183h-.99199l-.46887-.56061c-.0595-.0726-.11237-.11972-.15888-.14141-.0633-.0284-.13498-.0425-.21505-.0425h-.0775v.74456h-.88155m.88155-1.0912h.37007l.2325-.025c.0581-.007.10526-.0267.14142-.0575s.0562-.0663.0562-.10638c0-.0592-.0291-.10469-.0872-.13639s-.16727-.0476-.32744-.0476h-.38556v.37291" fill="#c20000"/>
  <path d="m565.27 362.84h0.87962v1.8345h-0.87962v-1.8345" fill="#c20000"/>
  <path d="m568.66985,363.92291 .76919.15017c-.0516.13931-.13305.25569-.24413.34912s-.24928.16394-.41461.21149c-.16405.0476-.3733.0714-.62776.0714-.30869,0-.56121-.0288-.75755-.0863s-.3636-.16059-.50569-.30658-.21311-.33286-.21311-.56061c0-.30367.12464-.53684.37393-.69952s.60449-.24527 1.06174-.24527c.35778,0 .63872.0467.8428.14015 .20537.0934.35779.23693.45726.43047l-.77501.11138c-.0271-.0559-.0555-.0968-.0852-.12264-.049-.0434-.10913-.0768-.18019-.10011s-.15047-.035-.23831-.035c-.19891,0-.35133.0518-.45724.15517-.0801.0768-.12008.1973-.12008.36165 0,.20355.0478.3433.14337.41921s.22993.11262.40301.11262 .29449-.0304.37975-.0913 .14918-.14933.18792-.26529" fill="#c20000"/>
  <path d="m571.61096,364.36965h-.99975l-.13756.30283h-.89705l1.06755-1.8345h.95712l1.06755,1.8345h-.91836l-.1395-.30283m-.18407-.39669-.31386-.65946-.31195.65946h.62581" fill="#c20000"/>
  <path d="m572.95 362.84h0.81956l1.0695 1.0148v-1.0148h0.82729v1.8345h-0.82729l-1.0637-1.0074v1.0074h-0.82538v-1.8345" fill="#c20000"/>
  <path d="m579.47326,363.92291 .76918.15017c-.0516.13931-.13304.25569-.24412.34912s-.2493.16394-.41463.21149c-.16403.0476-.37329.0714-.62774.0714-.30871,0-.56123-.0288-.75755-.0863s-.36361-.16059-.50569-.30658-.21312-.33286-.21312-.56061c0-.30367.12464-.53684.37394-.69952s.60448-.24527 1.06174-.24527c.35778,0 .63871.0467.8428.14015 .20537.0934.35779.23693.45724.43047l-.77499.11138c-.0271-.0559-.0555-.0968-.0852-.12264-.049-.0434-.10913-.0768-.18018-.10011s-.15048-.035-.23832-.035c-.19891,0-.35133.0518-.45724.15517-.0801.0768-.12008.1973-.12008.36165 0,.20355.0478.3433.14338.41921s.22991.11262.403.11262 .2945-.0304.37975-.0913 .14918-.14933.18794-.26529" fill="#c20000"/>
  <path d="m580.67 362.84h0.87768v1.3828h1.3698v0.45175h-2.2475v-1.8345" fill="#c20000"/>
  <path d="m585.06483,364.36965h-.99974l-.13756.30283h-.89706l1.06755-1.8345h.95712l1.06755,1.8345h-.91836l-.1395-.30283m-.18407-.39669-.31386-.65946-.31193.65946h.62579" fill="#c20000"/>
  <path d="m586.24864,364.06556 .83505-.0337c.018.0876.0549.15433.11037.20022 .0905.0743.21958.11138.3875.11138 .12529,0 .22151-.0188.28868-.0563s.10265-.0826.10265-.13265-.0323-.0901-.0969-.12764-.2144-.073-.44949-.10637c-.38491-.0559-.65939-.13013-.82343-.22274-.16533-.0926-.248-.21065-.248-.35413 0-.0943.0419-.18312.12595-.26655 .0852-.0842.21246-.15016.38167-.19771s.40364-.0726.69944-.0726c.36295,0 .63936.0438.82924.13139s.30483.22525.341.41545l-.82731.0313c-.022-.0826-.0684-.14265-.1395-.1802s-.16662-.0563-.29062-.0563c-.10203,0-.17889.0142-.23056.0425s-.0775.0613-.0775.10137c0,.0292.0213.0554.064.0788s.13949.0467.29449.0676c.38362.0534.6581.10761.82343.16267 .16662.0542.2874.1218.36232.20272 .0761.0809.11435.17144.11435.27155-2e-005,.11763-.0504.22608-.15114.32535s-.24154.17478-.42236.2265-.40882.0763-.68393.0763c-.48308,0-.81762-.06-1.00362-.1802s-.29127-.2728-.3158-.45801" fill="#c20000"/>
  <path d="m589.11611,364.06556 .83505-.0337c.018.0876.0549.15433.11049.20022 .0905.0743.21959.11138.38751.11138 .12528,0 .22151-.0188.28867-.0563s.10266-.0826.10266-.13265-.0322-.0901-.0968-.12764-.21442-.073-.4495-.10637c-.38492-.0559-.65938-.13013-.82343-.22274-.16533-.0926-.24799-.21065-.24799-.35413 0-.0943.0419-.18312.12593-.26655 .0852-.0842.21248-.15016.38168-.19771s.40364-.0726.69944-.0726c.36295,0 .63936.0438.82924.13139s.30483.22525.341.41545l-.82731.0313c-.022-.0826-.0684-.14265-.1395-.1802s-.16663-.0563-.29062-.0563c-.10203,0-.1789.0142-.23056.0425s-.0775.0613-.0775.10137c0,.0292.0213.0554.064.0788s.1395.0467.29449.0676c.38362.0534.6581.10761.82343.16267 .16662.0542.28739.1218.36231.20272 .0762.0809.11435.17144.11435.27155-1e-005,.11763-.0504.22608-.15113.32535s-.24153.17478-.42236.2265-.40882.0763-.68394.0763c-.48307,0-.81761-.06-1.00361-.1802s-.29127-.2728-.31581-.45801" fill="#c20000"/>
  <path d="m592.17 362.84h0.87961v1.8345h-0.87961v-1.8345" fill="#c20000"/>
  <path d="m595.56986,363.92291 .76918.15017c-.0516.13931-.13304.25569-.24412.34912s-.2493.16394-.41463.21149c-.16404.0476-.37329.0714-.62774.0714-.30871,0-.56123-.0288-.75755-.0863s-.3636-.16059-.50569-.30658-.21312-.33286-.21312-.56061c0-.30367.12464-.53684.37394-.69952s.60449-.24527 1.06173-.24527c.35779,0 .63873.0467.84281.14015 .20537.0934.35778.23693.45724.43047l-.77499.11138c-.0271-.0559-.0555-.0968-.0852-.12264-.049-.0434-.10913-.0768-.18019-.10011s-.15049-.035-.23831-.035c-.19891,0-.35133.0518-.45724.15517-.0801.0768-.12008.1973-.12008.36165 0,.20355.0478.3433.14337.41921s.22991.11262.40299.11262 .2945-.0304.37975-.0913 .14919-.14933.18794-.26529" fill="#c20000"/>
  <path d="m566.44756,366.04148h.9668l.50376.56437 .48824-.56437h.95712l-.8835.88847 .9668.94604h-.98617l-.55994-.58939-.56186.58939h-.98038l.98038-.95605-.89125-.87846"/>
  <path d="m570.62672,366.04148v.50555h.43398v.37166h-.43398v.47176c0,.0567.009.0943.0251.11263 .0259.0284.0711.0425.13563.0425s.13949-.0109.24412-.0326l.0581.35164c-.19505.0276-.37716.0413-.54637.0413-.19633,0-.34099-.0162-.43399-.0488s-.16211-.0817-.20732-.14765c-.0439-.0668-.0658-.17436-.0658-.32286v-.46801h-.29062v-.37165h.29062v-.24402l.79049-.26154"/>
  <path d="m571.44239,366.54703h.73819v.21774c.0711-.0943.14401-.15892.21893-.19396 .0761-.0358.16985-.0538.28093-.0538 .11622,0 .24348.0234.38169.0701l-.24412.36289c-.0929-.025-.16663-.0375-.22088-.0375-.1034,0-.18341.0275-.24025.0826-.0814.0775-.12206.22275-.12206.43548v.44548h-.79244v-1.32895"/>
  <path d="m575.54017,367.3379h-1.58099c.0142.0818.0484.14265.10266.1827 .0761.0575.17567.0863.29838.0863 .0775,0 .15112-.0125.22087-.0375 .0427-.0158.0885-.0438.13757-.0838l.77693.0463c-.11884.13348-.26222.22942-.43013.28781s-.40881.0864-.72268.0864c-.27254,0-.48696-.0246-.64325-.0739s-.2861-.12889-.38943-.23651-.15306-.23567-.15306-.38167c0-.20772.10266-.37582.30806-.50429s.49147-.19271.85443-.19271c.29449,0 .52699.0288.6975.0863s.3003.14099.38943.25027 .13368.25153.13368.42672v.0575m-.80211-.24402c-.0155-.0984-.0569-.16893-.12406-.21148s-.15306-.0638-.26155-.0638c-.1253,0-.22539.0322-.30031.0964-.0478.04-.0781.0997-.0911.17895h.77693"/>
  <path d="m575.91217,366.54703h.73624v.19397c.10589-.0809.21247-.13849.31968-.17269s.23896-.0513.39137-.0513c.16404,0 .29386.0188.38943.0563s.17373.0934.23444.16768c.12394-.0868.23702-.14557.33906-.17644s.22797-.0476.37781-.0476c.22088,0 .39331.0425.51731.12764 .12393.0843.18599.21649.18599.39669v.83466h-.79049v-.75708c0-.06-.018-.1047-.0543-.13389-.053-.0459-.11883-.0688-.19762-.0688-.0929,0-.16792.0217-.22475.0651s-.0852.11303-.0852.20898v.68574h-.79049v-.73204c0-.0584-.005-.098-.0156-.11889-.0168-.0334-.0459-.06-.0872-.08s-.0897-.0313-.14531-.0313c-.0905,1e-005-.16469.0221-.22281.0663s-.0872.11679-.0872.21773v.67824h-.7905v-1.32895"/>
  <path d="m582.1586,367.3379h-1.58098c.0142.0818.0484.14265.10265.1827 .0762.0575.17566.0863.29837.0863 .0775,0 .15112-.0125.22088-.0375 .0427-.0158.0885-.0438.13756-.0838l.77693.0463c-.11883.13348-.26222.22942-.43012.28781s-.40882.0864-.72268.0864c-.27254,0-.48696-.0246-.64325-.0739s-.28609-.12889-.38943-.23651-.15307-.23567-.15307-.38167c0-.20772.10266-.37582.30807-.50429s.49147-.19271.85442-.19271c.29451,0 .527.0288.6975.0863s.30031.14099.38943.25027 .13369.25153.13369.42672v.0575m-.80212-.24402c-.0155-.0984-.0569-.16893-.12393-.21148s-.15306-.0638-.26157-.0638c-.12529,0-.22539.0322-.30031.0964-.0478.04-.0781.0997-.0911.17895h.77693"/>
  <path d="m501.36086,363.0558h-1.75097v-.52651c0-.2457-.0224-.40219-.0672-.46948s-.11942-.10091-.22392-.10092c-.11344,1e-005-.20002.0453-.25972.13602s-.0851.22817-.0851.41244c0,.23694.0328.41537.0985.5353 .0626.11993.24032.26472.53291.43437 .8389.4885 1.36733.88923 1.58527,1.20222s.32691.81757.32692,1.51374c-1e-005,.50604-.0612.87899-.18361,1.11884s-.35229.4417-.6986.6055-.74935.24132-1.20911.24132c-.50455,0-.93594-.0936-1.2942-.28081s-.58814-.4256-.6986-.71518-.1657-.70056-.1657-1.23293v-.46509h1.75098v.86436c0,.26619.0238.4373.0716.51336s.13882.11408.26422.11408 .21793-.0483.27764-.14479 .0941-.23986.0941-.43c0-.41828-.0582-.69178-.17466-.82048s-.41348-.3437-.8822-.64499-.7792-.52505-.93147-.66253-.27913-.32761-.38064-.5704-.14778-.55284-.14778-.93018c0-.54406.0701-.94188.21047-1.19344s.37318-.44753.68965-.58794 .6986-.21499 1.14642-.215c.48961,1e-005 .90608.0775 1.24941.23255 .34631.15503.5747.35102.68516.58794 .11345.23401.17017.63329.17017,1.19783v.2808" fill="url(#a)"/>
  <path d="m505.57933,361.41043v.91703h.48812v.9214h-.48812v3.11523c-1e-005,.3832.0194.59673.0582.64061s.21048.0658.50604.0658v.93895h-.72995c-.41199,0-.70606-.0161-.8822-.0483-.17615-.0351-.33139-.11262-.46573-.23254s-.21795-.2618-.25078-.41684-.0493-.52651-.0493-1.10568v-2.95728h-.38961v-.9214h.38961v-.91703h1.81367" fill="url(#a)"/>
  <path d="m509.94 360.91v0.92579h-1.8629v-0.92579h1.8629m0 1.2812v5.8224h-1.8629v-5.8224h1.8629" fill="url(#a)"/>
  <path d="m516.19713,364.38527h-1.7062v-.67131c0-.23401-.0194-.39197-.0582-.47387s-.11047-.12724-.21496-.12724-.17465.0365-.21047.10969-.0537.23694-.0537.49142v2.74666c0,.20769.0269.36418.0806.46948 .0537.10238.13285.15357.23734.15357 .1224,0 .2045-.0541.2463-.16235s.0672-.31297.0672-.61426v-.69325h1.61215c-.003.46509-.0209.81464-.0538,1.04865s-.12987.46947-.30004.71518c-.16719.24279-.38662.42706-.65829.55284-.27168.12286-.60754.18429-1.0076.18429-.51051,0-.91503-.0848-1.21359-.25449s-.5105-.41243-.6359-.71957c-.1224-.31006-.1836-.74882-.1836-1.3163v-1.65414c0-.49434.0507-.86728.15225-1.11885s.31795-.47532.64934-.67131 .73442-.29836 1.20912-.29836 .87474.098 1.20911.29398 .55678.44315.66725.7415 .16569.72104.1657,1.26804" fill="url(#a)"/>
  <path d="m522.24 362.19-0.73442 2.3211 0.95385 3.5013h-1.742l-0.56425-2.536v2.536h-1.8092v-7.1036h1.8092v2.9836l0.56425-1.7024h1.5226" fill="url(#a)"/>
  <path d="m527.94 360.91-0.29555 5.3486h-1.3972l-0.29556-5.3486h1.9883m-0.14777 5.682v1.4216h-1.6928v-1.4216h1.6928" fill="url(#a)"/>
 </g>
</svg>
