<svg version="1.0" xmlns="http://www.w3.org/2000/svg"
 width="921.000000pt" height="641.000000pt" viewBox="0 0 921.000000 641.000000"
 preserveAspectRatio="xMidYMid meet">

<g transform="translate(0.000000,641.000000) scale(0.100000,-0.100000)"
fill="#000000" stroke="none">
<path d="M2944 6305 c-37 -16 -64 -48 -95 -111 -28 -58 -45 -69 -181 -109
-351 -105 -785 -321 -1106 -550 l-52 -38 -70 15 c-169 37 -255 -52 -225 -230
8 -52 -3 -75 -80 -162 -240 -270 -437 -633 -555 -1024 -54 -178 -64 -195 -137
-231 -82 -40 -100 -59 -119 -120 -25 -77 -14 -116 50 -184 29 -31 58 -65 64
-77 7 -14 9 -84 5 -215 -10 -327 35 -622 146 -972 49 -154 51 -186 11 -260
-36 -67 -38 -114 -9 -174 24 -50 51 -67 134 -82 33 -6 71 -19 85 -29 14 -10
55 -63 93 -118 250 -368 464 -597 777 -832 112 -83 135 -115 149 -201 13 -79
28 -103 83 -129 73 -36 116 -37 186 -8 34 14 79 26 101 26 22 0 100 -20 173
-45 343 -117 714 -183 1078 -190 96 -2 183 -4 193 -4 9 -1 44 -25 76 -55 66
-61 111 -75 179 -56 59 15 98 52 117 111 20 60 37 72 151 105 374 108 842 343
1081 542 32 27 71 56 87 64 l28 14 -93 81 c-91 79 -94 81 -115 65 -434 -344
-835 -518 -1380 -599 -167 -24 -570 -24 -739 0 -615 91 -1142 354 -1569 783
-502 506 -786 1193 -787 1904 0 346 57 667 176 980 91 240 263 540 431 750 91
113 286 307 404 401 393 314 877 520 1375 585 156 21 491 23 640 5 757 -93
1447 -489 1884 -1082 47 -64 102 -144 123 -176 35 -59 37 -60 90 -67 29 -3
134 -17 233 -30 99 -13 182 -22 184 -20 7 7 -42 75 -62 86 -12 6 -55 17 -96
25 -81 14 -103 28 -134 88 -32 64 -128 201 -218 315 -154 193 -414 436 -601
560 -107 73 -108 73 -108 155 0 82 -20 122 -79 162 -52 35 -93 39 -164 14
-138 -49 -119 -49 -257 7 -316 128 -662 195 -1079 209 l-194 6 -51 54 c-28 30
-63 61 -78 69 -34 17 -113 17 -154 -1z"/>
<path d="M3190 5864 c-332 -38 -560 -95 -820 -206 -531 -227 -987 -636 -1272
-1143 -163 -290 -268 -610 -320 -980 -17 -115 -16 -510 0 -630 38 -276 105
-517 208 -750 438 -994 1427 -1618 2508 -1582 100 4 227 13 284 21 383 57 748
192 1062 394 102 66 270 191 270 202 0 4 -11 15 -23 23 -23 15 -28 12 -135
-68 -376 -282 -846 -461 -1327 -504 -228 -20 -545 2 -780 55 -253 57 -584 191
-795 324 -556 347 -961 892 -1135 1525 -195 712 -68 1491 344 2109 98 148 166
231 296 365 806 832 2047 1027 3074 485 348 -184 662 -461 896 -791 53 -76 61
-83 92 -83 18 0 33 4 33 9 0 5 -33 55 -74 112 -342 480 -806 818 -1371 999
-261 83 -440 111 -745 115 -129 2 -251 1 -270 -1z"/>
<path d="M3899 4680 c-61 -10 -86 -24 -104 -60 -45 -87 70 -167 265 -185 41
-3 94 -2 116 3 34 8 59 5 130 -14 342 -92 1654 -314 3419 -578 1163 -175 1147
-173 1225 -133 51 25 90 77 90 119 0 63 -52 128 -125 156 -108 41 -2965 445
-3935 556 -356 41 -685 70 -705 62 -8 -3 -33 6 -57 19 -85 47 -222 70 -319 55z"/>
<path d="M2220 4367 c-52 -26 -50 8 -47 -1034 l2 -972 23 -23 23 -23 482 0
c429 0 491 2 567 18 253 55 439 185 539 377 85 162 106 320 98 720 -4 192 -10
286 -22 340 -66 301 -256 493 -570 577 l-100 27 -485 3 c-381 3 -490 1 -510
-10z m935 -523 c69 -26 130 -89 149 -155 23 -76 23 -626 1 -690 -48 -135 -150
-179 -417 -179 l-138 0 0 526 0 526 178 -4 c142 -4 187 -9 227 -24z"/>
<path d="M4135 3856 l-25 -25 2 -747 c3 -725 4 -746 22 -760 15 -11 60 -14
197 -14 l178 0 20 26 c20 25 21 39 21 260 l0 234 48 0 c53 0 107 -25 134 -61
10 -13 56 -105 103 -203 47 -99 97 -192 112 -208 39 -41 78 -48 270 -48 187 0
203 4 203 57 0 25 -188 401 -241 480 l-28 43 44 30 c122 84 188 230 189 420 1
152 -34 268 -110 364 -42 53 -135 115 -217 145 l-72 25 -412 4 -413 3 -25 -25z
m736 -389 c42 -29 59 -60 59 -115 0 -65 -26 -111 -74 -133 -33 -15 -66 -19
-173 -19 l-133 0 0 145 0 145 144 0 c132 0 146 -2 177 -23z"/>
<path d="M5580 3860 c-19 -19 -20 -33 -20 -542 0 -584 3 -608 66 -737 108
-220 372 -333 702 -300 297 30 495 188 548 438 18 88 21 1116 2 1127 -29 18
-144 33 -254 34 -105 0 -125 -3 -145 -19 l-24 -19 -5 -529 c-4 -374 -8 -534
-17 -548 -36 -63 -109 -97 -208 -98 -109 0 -172 33 -206 108 -17 37 -19 77
-19 548 l0 508 -25 24 c-24 25 -27 25 -200 25 -162 0 -177 -2 -195 -20z"/>
<path d="M7100 3087 c0 -638 2 -725 16 -745 15 -21 20 -22 194 -22 l180 0 16
25 c14 22 16 56 11 293 -5 272 -11 335 -58 532 -11 47 -22 93 -25 103 -3 9 -1
17 5 17 6 0 18 -25 27 -56 48 -166 224 -532 280 -581 23 -21 35 -23 144 -23
70 0 130 5 145 12 39 18 194 332 290 586 15 41 31 70 36 65 4 -4 -3 -46 -17
-93 -58 -202 -73 -317 -75 -588 -2 -230 0 -254 16 -272 17 -19 32 -20 200 -20
141 0 186 3 201 14 18 14 19 33 21 618 2 332 -1 608 -5 614 -8 13 -496 89
-515 81 -7 -3 -73 -125 -147 -271 -74 -146 -137 -266 -140 -266 -3 0 -78 143
-167 318 l-162 317 -208 32 c-114 18 -220 32 -235 33 l-28 0 0 -723z"/>
<path d="M5094 2186 c-63 -28 -102 -110 -90 -189 9 -61 34 -90 133 -154 104
-66 126 -98 120 -172 -5 -70 -36 -101 -101 -101 -54 0 -82 25 -97 86 -10 39
-15 45 -33 40 -12 -3 -27 -6 -34 -6 -19 0 -5 -65 23 -116 31 -54 84 -78 159
-72 105 9 163 86 154 207 -5 75 -37 120 -122 170 -87 52 -136 102 -136 138 0
72 36 116 96 116 30 0 84 -51 84 -78 0 -10 11 -15 35 -15 41 0 44 13 16 68
-32 62 -64 85 -123 89 -31 2 -66 -2 -84 -11z"/>
<path d="M2572 1873 c-44 -175 -82 -327 -84 -337 -2 -14 5 -21 27 -27 37 -11
38 -8 66 113 l22 98 92 0 93 0 27 -111 c27 -110 28 -110 54 -104 14 4 29 10
33 13 4 4 -31 156 -77 337 -47 181 -85 331 -85 332 0 2 -19 3 -43 3 l-43 0
-82 -317z m163 63 c19 -81 35 -150 35 -152 0 -2 -34 -4 -76 -4 -57 0 -75 3
-72 13 3 6 20 76 38 154 19 79 35 142 36 140 2 -2 19 -69 39 -151z"/>
<path d="M5710 2039 c-36 -15 -78 -58 -103 -104 -19 -35 -22 -56 -22 -160 0
-116 1 -122 31 -175 54 -94 154 -126 251 -79 38 18 103 84 92 93 -48 37 -53
38 -79 6 -28 -34 -89 -59 -125 -52 -110 21 -144 290 -49 386 37 37 101 37 138
0 14 -15 26 -31 26 -35 0 -14 33 -10 54 6 18 13 18 17 5 41 -25 48 -75 78
-137 81 -32 1 -68 -2 -82 -8z"/>
<path d="M6922 2033 c-75 -37 -112 -122 -112 -258 0 -177 68 -275 191 -275 89
0 147 53 175 160 38 150 -4 319 -91 367 -48 27 -116 30 -163 6z m167 -117 c21
-41 25 -64 25 -140 -1 -117 -25 -179 -79 -202 -33 -14 -40 -13 -73 3 -23 11
-44 32 -55 55 -39 79 -31 255 14 312 49 62 130 49 168 -28z"/>
<path d="M7532 2033 c-81 -40 -116 -130 -110 -282 6 -159 62 -240 172 -249
101 -8 162 42 192 159 38 147 -4 318 -91 366 -48 27 -116 30 -163 6z m114 -58
c53 -22 78 -85 78 -200 0 -76 -3 -98 -24 -140 -20 -39 -33 -52 -60 -61 -98
-32 -161 71 -147 239 7 87 32 137 77 159 42 21 33 21 76 3z"/>
<path d="M3160 1775 l0 -265 35 0 35 0 0 115 0 115 49 0 50 0 66 -120 c37 -66
70 -120 74 -120 3 0 17 9 30 19 l24 18 -62 102 c-33 56 -61 104 -61 105 0 2
15 13 33 24 93 54 87 218 -8 258 -23 9 -72 14 -150 14 l-115 0 0 -265z m217
195 c46 -17 64 -65 41 -115 -17 -38 -58 -55 -128 -55 l-60 0 0 90 0 90 59 0
c32 0 72 -5 88 -10z"/>
<path d="M3747 2034 c-4 -4 -7 -18 -7 -31 0 -22 3 -23 75 -23 l75 0 0 -235 0
-235 35 0 35 0 0 235 0 235 73 0 73 0 -2 28 -1 27 -174 3 c-97 1 -178 -1 -182
-4z"/>
<path d="M6210 1775 l0 -265 35 0 35 0 0 125 0 125 105 0 105 0 0 -125 0 -125
35 0 35 0 0 265 0 265 -35 0 -35 0 0 -110 0 -110 -105 0 -105 0 0 110 0 110
-35 0 -35 0 0 -265z"/>
<path d="M8090 1775 l0 -265 175 0 175 0 0 30 0 30 -140 0 -140 0 0 235 0 235
-35 0 -35 0 0 -265z"/>
</g>
</svg>
