<svg version="1.0" xmlns="http://www.w3.org/2000/svg"
 width="1548.000000pt" height="1112.000000pt" viewBox="0 0 1548.000000 1112.000000"
 preserveAspectRatio="xMidYMid meet">

<g transform="translate(0.000000,1112.000000) scale(0.100000,-0.100000)"
fill="#000000" stroke="none">
<path d="M6190 10545 c-5 -13 -26 -64 -46 -112 -20 -48 -279 -695 -576 -1438
-297 -742 -541 -1351 -542 -1352 -1 -2 -58 8 -127 22 -548 107 -1077 110
-1575 10 -748 -152 -1402 -503 -1944 -1045 -302 -302 -524 -610 -719 -1000
-160 -321 -270 -663 -361 -1125 l-32 -160 5 -360 c6 -367 15 -484 58 -725 238
-1344 1203 -2474 2494 -2919 402 -139 733 -198 1160 -208 254 -6 433 4 630 32
796 117 1524 472 2098 1024 666 641 1059 1455 1158 2401 18 171 16 565 -5 745
-62 538 -219 1029 -474 1480 -80 141 -267 416 -376 552 -58 72 -106 134 -106
137 0 8 453 562 1115 1361 891 1076 1275 1547 1274 1562 0 14 -516 423 -533
423 -10 0 -191 -231 -326 -415 -68 -93 -196 -267 -284 -385 -88 -118 -405
-546 -705 -950 -532 -718 -896 -1206 -912 -1224 -4 -4 -61 30 -126 77 -257
184 -496 330 -735 448 -67 33 -124 61 -126 63 -7 7 252 577 598 1321 362 778
675 1466 682 1500 2 11 -51 40 -197 106 -273 123 -404 179 -421 179 -8 0 -19
-11 -24 -25z m-1013 -2974 c137 -43 313 -107 326 -120 9 -9 -31 -96 -785
-1731 -283 -613 -557 -1207 -608 -1318 -55 -121 -124 -251 -168 -320 -87 -135
-101 -169 -132 -311 -26 -126 -55 -195 -106 -250 -47 -53 -82 -71 -133 -71
-91 0 -134 52 -133 158 0 87 22 141 109 277 78 122 89 148 133 320 18 66 74
225 127 355 52 129 280 696 505 1260 502 1256 719 1790 729 1790 4 0 65 -18
136 -39z m1533 -907 c88 -86 160 -159 160 -163 0 -7 -415 -514 -996 -1216
-236 -286 -530 -641 -651 -790 -154 -188 -247 -291 -304 -340 -97 -82 -152
-149 -187 -225 -82 -178 -159 -264 -264 -299 -32 -11 -43 -10 -82 8 -91 40
-112 136 -55 249 23 48 56 85 146 169 128 119 144 141 228 293 36 64 161 241
320 455 144 192 455 611 691 930 599 810 807 1084 821 1085 7 0 85 -70 173
-156z m-55 -1884 c444 -64 741 -310 844 -702 59 -228 51 -617 -19 -917 -64
-272 -189 -522 -357 -717 -135 -156 -375 -311 -593 -385 -236 -78 -350 -89
-983 -89 -499 0 -528 1 -523 18 3 9 136 638 296 1397 160 759 293 1386 295
1393 5 15 931 17 1040 2z"/>
<path d="M6240 4186 c0 -3 -74 -359 -165 -790 -91 -431 -165 -786 -165 -790 0
-11 174 -5 255 9 124 22 213 71 315 174 47 47 100 112 118 143 180 307 239
828 120 1062 -33 65 -103 131 -171 162 -54 24 -77 28 -184 32 -68 2 -123 2
-123 -2z"/>
<path d="M9240 4185 c-141 -29 -213 -67 -307 -158 -40 -38 -96 -104 -124 -146
-29 -42 -54 -78 -56 -80 -11 -15 -11 23 2 150 8 79 15 159 15 177 l0 32 -300
0 c-165 0 -300 -3 -300 -6 0 -3 -103 -496 -230 -1096 -126 -599 -230 -1092
-230 -1094 0 -2 168 -4 374 -4 348 0 375 1 380 18 3 9 53 242 111 517 140 657
167 737 295 866 82 83 146 110 275 116 81 4 192 -10 245 -31 13 -6 29 53 97
361 49 227 77 372 71 378 -14 16 -244 16 -318 0z"/>
<path d="M13475 4194 c-11 -2 -45 -9 -75 -15 -30 -6 -91 -28 -136 -49 -64 -31
-95 -54 -150 -113 -39 -40 -90 -106 -115 -145 -24 -40 -46 -72 -49 -72 -4 0 0
62 7 138 6 75 12 156 13 180 l0 42 -300 0 c-165 0 -300 -3 -300 -6 0 -3 -103
-496 -230 -1096 -126 -599 -230 -1092 -230 -1094 0 -2 168 -4 374 -4 348 0
375 1 380 18 3 9 59 269 125 577 66 308 132 601 146 650 31 106 101 255 145
308 88 104 250 117 294 22 42 -91 31 -168 -128 -935 -69 -332 -126 -612 -126
-622 0 -17 22 -18 369 -18 204 0 372 4 375 9 3 5 58 262 121 572 63 310 126
604 140 653 78 274 174 395 319 404 55 4 65 1 93 -22 49 -41 56 -71 50 -204
-4 -99 -25 -215 -136 -752 -72 -349 -131 -641 -131 -647 0 -10 82 -13 375 -13
206 0 375 2 375 4 0 2 58 289 129 638 71 348 135 677 141 730 19 150 9 405
-20 493 -33 106 -76 178 -141 240 -94 90 -220 134 -381 135 -258 0 -477 -118
-627 -339 -23 -34 -46 -61 -50 -61 -5 0 -11 14 -15 32 -13 64 -75 175 -130
230 -63 65 -134 102 -231 123 -64 13 -221 18 -270 9z"/>
<path d="M9876 4143 c-14 -46 -259 -1230 -273 -1318 -23 -154 -21 -391 5 -488
80 -295 321 -445 653 -407 221 25 346 105 502 320 20 28 20 32 1 -207 l-7 -83
301 0 c278 0 301 1 306 18 8 30 456 2160 456 2171 0 8 -112 11 -374 11 l-374
0 -5 -22 c-3 -13 -58 -273 -122 -578 -119 -567 -157 -708 -222 -832 -43 -83
-109 -159 -157 -182 -75 -36 -168 -10 -202 55 -13 27 -15 53 -11 143 4 92 28
222 141 759 75 357 136 651 136 653 0 2 -168 4 -374 4 -348 0 -375 -1 -380
-17z"/>
<path d="M10717 1605 c-78 -27 -117 -86 -117 -175 0 -95 35 -131 192 -199 53
-23 103 -50 111 -59 48 -53 40 -138 -16 -173 -25 -16 -45 -19 -91 -16 -54 3
-62 7 -92 41 -18 21 -36 51 -39 67 -7 31 -25 36 -70 19 -22 -8 -24 -14 -19
-37 41 -170 241 -240 383 -135 63 47 90 158 56 237 -13 34 -70 95 -88 95 -4 0
-54 22 -110 49 -76 36 -106 56 -115 76 -19 42 -14 74 17 106 25 24 38 29 79
29 58 0 97 -25 118 -77 16 -37 15 -37 67 -22 33 9 37 13 31 32 -20 65 -76 127
-133 146 -45 15 -117 13 -164 -4z"/>
<path d="M11519 1592 c-102 -53 -153 -165 -153 -337 0 -117 19 -190 66 -261
91 -135 296 -140 403 -10 19 24 35 47 35 52 0 14 -72 57 -79 47 -61 -93 -154
-128 -231 -88 -127 66 -131 437 -6 515 64 39 152 17 192 -47 10 -15 19 -30 21
-32 6 -9 83 33 83 45 0 13 -42 68 -70 92 -67 58 -177 68 -261 24z"/>
<path d="M13155 1601 c-88 -41 -139 -127 -156 -264 -34 -259 72 -447 251 -447
104 0 177 56 221 167 21 51 23 75 23 198 0 124 -2 147 -23 199 -55 138 -195
203 -316 147z m161 -90 c18 -11 42 -40 55 -68 22 -44 24 -61 24 -188 0 -127
-2 -144 -24 -188 -63 -129 -210 -114 -258 26 -12 38 -17 83 -17 162 0 134 18
199 70 245 42 36 101 41 150 11z"/>
<path d="M13975 1601 c-88 -41 -139 -127 -156 -264 -34 -259 72 -447 251 -447
104 0 177 56 221 167 21 51 23 75 23 198 0 124 -2 147 -23 199 -55 138 -195
203 -316 147z m161 -90 c18 -11 42 -40 55 -68 22 -44 24 -61 24 -188 0 -127
-2 -144 -24 -188 -63 -129 -210 -114 -258 26 -12 38 -17 83 -17 162 0 134 18
199 70 245 42 36 101 41 150 11z"/>
<path d="M7463 1594 c-3 -8 -54 -165 -113 -347 l-107 -332 26 -11 c68 -30 64
-33 101 81 l34 106 125 -3 125 -3 31 -97 c16 -53 33 -99 36 -103 4 -3 25 2 48
11 35 14 41 20 35 38 -6 18 -176 554 -205 644 -10 31 -12 32 -70 32 -45 0 -61
-4 -66 -16z m116 -265 c22 -74 41 -141 41 -147 0 -8 -28 -12 -96 -12 -73 0
-95 3 -92 13 2 6 24 78 48 159 25 81 47 142 51 135 4 -6 25 -73 48 -148z"/>
<path d="M8140 1255 l0 -355 45 0 45 0 0 150 0 150 68 0 67 -1 89 -159 c49
-88 91 -160 92 -160 11 0 74 44 74 52 0 5 -37 70 -82 144 -45 74 -79 135 -77
137 2 2 21 14 41 26 103 62 126 232 44 315 -47 46 -93 56 -260 56 l-146 0 0
-355z m283 264 c69 -19 97 -101 57 -166 -31 -52 -61 -65 -160 -71 l-90 -5 0
127 0 126 78 0 c42 0 94 -5 115 -11z"/>
<path d="M8930 1570 l0 -40 100 0 100 0 0 -315 0 -315 45 0 45 0 0 315 0 315
95 0 95 0 0 40 0 40 -240 0 -240 0 0 -40z"/>
<path d="M12210 1255 l0 -355 45 0 45 0 0 165 0 165 140 0 140 0 0 -165 0
-165 45 0 45 0 0 355 0 355 -45 0 -45 0 0 -150 0 -150 -140 0 -140 0 0 150 0
150 -45 0 -45 0 0 -355z"/>
<path d="M14710 1255 l0 -355 235 0 235 0 0 40 0 40 -190 0 -190 0 0 315 0
315 -45 0 -45 0 0 -355z"/>
</g>
</svg>
