<!-- Generator: Adobe Illustrator 20.1.0, SVG Export Plug-In  -->
<svg version="1.1"
	 xmlns="http://www.w3.org/2000/svg" xmlns:xlink="http://www.w3.org/1999/xlink"
	 x="0px" y="0px" width="712.351px" height="628.912px" viewBox="0 0 712.351 628.912"
	 style="enable-background:new 0 0 712.351 628.912;" xml:space="preserve">
<style type="text/css">
	.st0{fill:#E6E6E6;}
	.st1{fill:url(#SVGID_1_);}
	.st2{opacity:0.1;fill:#FFFFFF;}
	.st3{fill:#FFFFFF;}
	.st4{fill:url(#SVGID_2_);}
	.st5{fill:url(#SVGID_3_);}
	.st6{fill:url(#SVGID_4_);}
	.st7{fill:url(#SVGID_5_);}
	.st8{fill:url(#SVGID_6_);}
	.st9{fill:url(#SVGID_7_);}
	.st10{fill:url(#SVGID_8_);}
	.st11{fill:url(#SVGID_9_);}
	.st12{fill:url(#SVGID_10_);}
	.st13{fill:url(#SVGID_11_);}
	.st14{fill:url(#SVGID_12_);}
</style>
<defs>
</defs>
<g>
	<circle class="st0" cx="616.448" cy="95.902" r="95.902"/>
	<radialGradient id="SVGID_1_" cx="669.1418" cy="36.8853" r="137.3787" gradientUnits="userSpaceOnUse">
		<stop  offset="0" style="stop-color:#373092"/>
		<stop  offset="0.1007" style="stop-color:#3C3092"/>
		<stop  offset="0.2148" style="stop-color:#492F92"/>
		<stop  offset="0.3351" style="stop-color:#602D91"/>
		<stop  offset="0.3618" style="stop-color:#662D91"/>
		<stop  offset="0.4187" style="stop-color:#6D2C91"/>
		<stop  offset="0.4996" style="stop-color:#7F2A8F"/>
		<stop  offset="0.5944" style="stop-color:#9E258E"/>
		<stop  offset="0.6599" style="stop-color:#B7228C"/>
		<stop  offset="0.9786" style="stop-color:#F7931E"/>
	</radialGradient>
	<path class="st1" d="M704.974,95.902c0,48.889-39.637,88.524-88.525,88.524c-48.889,0-88.525-39.636-88.525-88.524
		c0-12.962,2.783-25.272,7.789-36.358c13.869-30.752,44.811-52.167,80.736-52.167c35.926,0,66.867,21.415,80.736,52.167
		C702.19,70.63,704.974,82.939,704.974,95.902z"/>
	<path class="st2" d="M697.185,59.543c-13.869,30.752-44.811,52.166-80.736,52.166c-35.926,0-66.867-21.414-80.736-52.166
		c13.869-30.752,44.811-52.167,80.736-52.167C652.374,7.377,683.315,28.792,697.185,59.543z"/>
	<g>
		<g>
			<path class="st3" d="M640.989,143.48h-49.08c-10.166,0-18.436-8.081-18.436-18.014V74.924c0-9.932,8.27-18.013,18.436-18.013
				h49.08c10.164,0,18.434,8.081,18.434,18.013v50.541C659.423,135.398,651.153,143.48,640.989,143.48z M591.909,64.331
				c-6.074,0-11.016,4.752-11.016,10.593v50.541c0,5.842,4.941,10.593,11.016,10.593h49.08c6.072,0,11.014-4.751,11.014-10.593
				V74.924c0-5.841-4.941-10.593-11.014-10.593H591.909z"/>
		</g>
		<g>
			<path class="st3" d="M616.448,122.664c-12.387,0-22.467-10.08-22.467-22.468c0-12.39,10.08-22.468,22.467-22.468
				c12.391,0,22.469,10.079,22.469,22.468C638.917,112.584,628.839,122.664,616.448,122.664z M616.448,85.147
				c-8.299,0-15.047,6.75-15.047,15.048c0,8.297,6.748,15.047,15.047,15.047c8.299,0,15.049-6.75,15.049-15.047
				C631.497,91.897,624.747,85.147,616.448,85.147z"/>
		</g>
		<circle class="st3" cx="640.564" cy="76.597" r="5.255"/>
	</g>
</g>
<g>
	<circle class="st0" cx="95.902" cy="95.902" r="95.902"/>
	<radialGradient id="SVGID_2_" cx="148.5949" cy="36.8853" r="137.3786" gradientUnits="userSpaceOnUse">
		<stop  offset="0" style="stop-color:#0071BC"/>
		<stop  offset="0.6862" style="stop-color:#054777"/>
	</radialGradient>
	<path class="st4" d="M184.426,95.902c0,48.889-39.636,88.524-88.524,88.524c-48.889,0-88.525-39.636-88.525-88.524
		c0-12.962,2.783-25.272,7.789-36.358C29.034,28.792,59.976,7.377,95.902,7.377c35.926,0,66.868,21.415,80.736,52.167
		C181.644,70.63,184.426,82.939,184.426,95.902z"/>
	<path class="st2" d="M176.638,59.543c-13.869,30.752-44.811,52.166-80.736,52.166c-35.926,0-66.868-21.414-80.736-52.166
		C29.034,28.792,59.976,7.377,95.902,7.377C131.828,7.377,162.77,28.792,176.638,59.543z"/>
	<path class="st3" d="M102.017,69.55c0-6.763,5.754-5.755,5.754-5.755h18.128V43.653H98.707c-20.574,0-21.104,22.588-21.104,22.588
		v15.394v0.06l-11.699,0.084v18.416h11.699v56.542h24.414v-56.542h20.717l3.166-18.847l-23.883,0.171v-0.171
		C102.017,81.348,102.017,76.312,102.017,69.55z"/>
</g>
<g>
	<circle class="st0" cx="356.174" cy="95.902" r="95.902"/>
	<radialGradient id="SVGID_3_" cx="408.8677" cy="36.8853" r="137.3787" gradientUnits="userSpaceOnUse">
		<stop  offset="0.073" style="stop-color:#4CC0B8"/>
		<stop  offset="0.2434" style="stop-color:#45BBB8"/>
		<stop  offset="0.4854" style="stop-color:#33ADB6"/>
		<stop  offset="0.7688" style="stop-color:#1496B4"/>
		<stop  offset="0.9282" style="stop-color:#0087B3"/>
	</radialGradient>
	<path class="st5" d="M444.699,95.902c0,48.889-39.636,88.524-88.525,88.524c-48.889,0-88.525-39.636-88.525-88.524
		c0-12.962,2.782-25.272,7.788-36.358c13.869-30.752,44.81-52.167,80.737-52.167s66.868,21.415,80.736,52.167
		C441.916,70.63,444.699,82.939,444.699,95.902z"/>
	<path class="st2" d="M436.91,59.543c-13.868,30.752-44.81,52.166-80.736,52.166s-66.868-21.414-80.737-52.166
		c13.869-30.752,44.81-52.167,80.737-52.167S423.042,28.792,436.91,59.543z"/>
	<path class="st3" d="M392.696,73.947c0,0,7.201-5.831,7.773-10.63c0,0-4.917,3.543-12.233,4.687c0,0-6.743-8.345-19.317-5.373
		c-12.574,2.972-15.203,17.031-13.716,22.633c0,0-21.833,0.343-39.664-19.89c0,0-8.687,14.518,6.287,25.719
		c0,0-7.185-0.457-8.792-2.286c0,0-0.695,15.203,15.651,18.975c0,0-3.887,1.372-8.916,0.8c0,0,4.229,12.573,18.06,12.916
		c0,0-12.573,10.402-28.805,8.116c0,0,17.103,12.602,40.458,7.619c1.113-0.238,2.24-0.515,3.381-0.835
		c14.8-4.498,27.602-14.1,34.693-28.016c0.469-0.903,0.927-1.839,1.364-2.809c3.075-6.783,5.284-15.161,4.805-24.883
		c0,0,7.315-5.143,9.601-9.715C403.325,70.975,398.638,73.147,392.696,73.947z"/>
</g>
<g>
	<circle class="st0" cx="616.448" cy="533.01" r="95.902"/>
	<radialGradient id="SVGID_4_" cx="669.1418" cy="473.9937" r="137.3791" gradientUnits="userSpaceOnUse">
		<stop  offset="0.1016" style="stop-color:#FFFF00"/>
		<stop  offset="0.2848" style="stop-color:#FFFB03"/>
		<stop  offset="0.4721" style="stop-color:#FEEF0C"/>
		<stop  offset="0.6613" style="stop-color:#FDDA1C"/>
		<stop  offset="0.8508" style="stop-color:#FCBE31"/>
		<stop  offset="0.927" style="stop-color:#FBB03B"/>
	</radialGradient>
	<path class="st6" d="M704.974,533.01c0,48.889-39.637,88.525-88.525,88.525c-48.889,0-88.525-39.637-88.525-88.525
		c0-12.963,2.783-25.272,7.789-36.357c13.869-30.752,44.811-52.167,80.736-52.167c35.926,0,66.867,21.415,80.736,52.167
		C702.19,507.738,704.974,520.047,704.974,533.01z"/>
	<path class="st2" d="M697.185,496.652c-13.869,30.75-44.811,52.166-80.736,52.166c-35.926,0-66.867-21.416-80.736-52.166
		c13.869-30.752,44.811-52.167,80.736-52.167C652.374,444.485,683.315,465.9,697.185,496.652z"/>
	<path class="st3" d="M670.759,559.697c-2.631-2.742-9.992,4.445-24.02-20.451c0,0-1.053-2.104,0.877-4.207
		c1.928-2.106,5.258-3.158,7.189-3.857c1.928-0.701,5.611-2.279,4.734-5.258c0,0-1.406-3.684-7.014-1.406
		c0,0-4.734,2.367-7.188-0.744c0,0,8.529-33.043-19.826-39.578c-0.479-0.109-0.971-0.211-1.471-0.305
		c-4.481-0.574-9.74-1.102-14.59,0.305c-0.482,0.111-0.951,0.229-1.414,0.354c-26.656,7.293-18.412,39.225-18.412,39.225
		c-2.455,3.111-7.191,0.744-7.191,0.744c-5.609-2.277-7.01,1.406-7.01,1.406c-0.877,2.979,2.805,4.557,4.732,5.258
		c1.928,0.699,5.26,1.752,7.188,3.857c1.928,2.103,0.879,4.207,0.879,4.207c-14.027,24.896-21.393,17.709-24.021,20.451
		c-2.301,2.4,3.184,5.213,5.529,5.762c0.338,0.076,0.606,0.109,0.781,0.088c5.438-0.701,8.066,2.981,10.172,7.19
		c0.523,0.521,1.578,1.051,2.381,0.951c0.443,0.039,0.906,0.043,1.383,0.025c1.9-0.076,3.996-0.529,5.66-0.578
		c0.408-0.004,0.807,0,1.193,0.018c0.877,0.037,1.703,0.129,2.48,0.262c0.777,0.135,1.51,0.309,2.188,0.51
		c4.703,1.439,8.385,5.646,13.307,7.514c0.688,0.229,1.371,0.432,2.035,0.609c3.326,0.9,9.014,0.9,12.34,0
		c0.664-0.178,1.35-0.381,2.033-0.609c4.924-1.867,8.607-6.074,13.312-7.514c0.678-0.201,1.404-0.375,2.182-0.51
		c0.781-0.133,1.607-0.225,2.482-0.262c0.389-0.018,0.785-0.021,1.191-0.018c1.666,0.049,3.76,0.502,5.662,0.578
		c0.477,0.018,0.94,0.014,1.381-0.025c0.805,0.1,1.857-0.43,2.385-0.951c2.102-4.209,4.73-7.891,10.166-7.19
		c0.176,0.022,0.449-0.012,0.783-0.088C667.575,564.91,673.061,562.098,670.759,559.697z"/>
</g>
<g>
	<circle class="st0" cx="95.902" cy="533.01" r="95.902"/>
	<radialGradient id="SVGID_5_" cx="148.5949" cy="473.9937" r="137.379" gradientUnits="userSpaceOnUse">
		<stop  offset="0" style="stop-color:#FF0000"/>
		<stop  offset="0.8421" style="stop-color:#8F0707"/>
	</radialGradient>
	<path class="st7" d="M184.426,533.01c0,48.889-39.636,88.525-88.524,88.525c-48.889,0-88.525-39.637-88.525-88.525
		c0-12.963,2.783-25.272,7.789-36.357c13.868-30.752,44.81-52.167,80.736-52.167c35.926,0,66.868,21.415,80.736,52.167
		C181.644,507.738,184.426,520.047,184.426,533.01z"/>
	<path class="st2" d="M176.638,496.652c-13.869,30.75-44.811,52.166-80.736,52.166c-35.926,0-66.868-21.416-80.736-52.166
		c13.868-30.752,44.81-52.167,80.736-52.167C131.828,444.485,162.77,465.9,176.638,496.652z"/>
	<path class="st3" d="M128.657,500.682h-65.51c-7.485,0-13.554,6.072-13.554,13.564v37.529c0,7.49,6.069,13.565,13.554,13.565h65.51
		c7.486,0,13.554-6.074,13.554-13.565v-37.529C142.21,506.754,136.143,500.682,128.657,500.682z M86.29,545.174v-26.213
		l25.121,13.105L86.29,545.174z"/>
</g>
<g>
	<circle class="st0" cx="356.174" cy="533.01" r="95.902"/>
	<radialGradient id="SVGID_6_" cx="408.8677" cy="473.9937" r="137.379" gradientUnits="userSpaceOnUse">
		<stop  offset="0.073" style="stop-color:#39B54A"/>
		<stop  offset="0.2586" style="stop-color:#36AF47"/>
		<stop  offset="0.5183" style="stop-color:#2C9C3F"/>
		<stop  offset="0.8204" style="stop-color:#1D7F32"/>
		<stop  offset="0.8965" style="stop-color:#18762E"/>
	</radialGradient>
	<path class="st8" d="M444.699,533.01c0,48.889-39.636,88.525-88.525,88.525c-48.889,0-88.525-39.637-88.525-88.525
		c0-12.963,2.782-25.272,7.788-36.357c13.869-30.752,44.81-52.167,80.737-52.167s66.868,21.415,80.736,52.167
		C441.916,507.738,444.699,520.047,444.699,533.01z"/>
	<path class="st2" d="M436.91,496.652c-13.868,30.75-44.81,52.166-80.736,52.166s-66.868-21.416-80.737-52.166
		c13.869-30.752,44.81-52.167,80.737-52.167S423.042,465.9,436.91,496.652z"/>
	<g>
		<path class="st3" d="M356.71,482.248c-27.543,0-49.951,22.408-49.951,49.953c0,9.061,2.402,17.793,6.982,25.486l-8.055,26.086
			l27.567-7.465c7.197,3.832,15.233,5.844,23.457,5.844c27.543,0,49.952-22.408,49.952-49.951
			C406.662,504.656,384.253,482.248,356.71,482.248z M356.71,573.998c-8.205,0-15.854-2.365-22.312-6.449l-0.591,0.162l-15.961,4.32
			l4.814-15.586c-4.877-6.838-7.747-15.207-7.747-24.244c0-23.084,18.712-41.799,41.796-41.799
			c23.083,0,41.798,18.715,41.798,41.799C398.508,555.283,379.793,573.998,356.71,573.998z"/>
		<path class="st3" d="M348.469,519.895c0,0,1.474,2.256,0,4.078c-1.475,1.822-2.689,3.209-2.689,3.209s-1.301,0.955,0,2.861
			c1.302,1.91,6.68,10.152,15.961,13.795c0,0,2.861,1.215,4.078-1.56l2.947-3.816c0,0,0.695-0.955,2.951,0
			c2.255,0.953,9.369,4.422,9.369,4.422s1.302,0.434,1.042,2.342c-0.261,1.91-0.954,9.283-11.191,10.065
			c0,0-9.89,0.348-20.994-8.242c-6.94-5.367-11.852-12.055-14.56-16.721c-0.181-0.31-0.351-0.611-0.512-0.904
			c-1.41-2.848-2.452-5.971-2.311-9.016c0-0.348,0.011-0.711,0.036-1.084c0.226-3.33,1.581-7.301,6.591-9.578
			c0,0,4.077-0.605,4.771,0L348.469,519.895z"/>
	</g>
</g>
</svg>