<?xml version="1.0" standalone="no"?>
<!DOCTYPE svg PUBLIC "-//W3C//DTD SVG 20010904//EN"
 "http://www.w3.org/TR/2001/REC-SVG-20010904/DTD/svg10.dtd">
<svg version="1.0" xmlns="http://www.w3.org/2000/svg"
 width="1920.000000pt" height="1920.000000pt" viewBox="0 0 1920.000000 1920.000000"
 preserveAspectRatio="xMidYMid meet">
<metadata>
Created by potrace 1.11, written by Peter Selinger 2001-2013
</metadata>
<g transform="translate(0.000000,1920.000000) scale(0.100000,-0.100000)"
fill="#000000" stroke="none">
<path d="M17520 16584 c-85 -24 -162 -46 -170 -48 -8 -2 -46 -13 -85 -24 -182
-53 -214 -62 -270 -77 -117 -32 -473 -133 -615 -175 -36 -10 -105 -30 -155
-45 -49 -14 -112 -32 -140 -40 -27 -9 -61 -17 -75 -20 -14 -3 -36 -9 -50 -14
-20 -8 -298 -87 -335 -95 -5 -2 -35 -10 -65 -19 -107 -31 -445 -128 -463 -132
-24 -5 -317 -89 -422 -120 -98 -29 -721 -205 -743 -210 -28 -7 -682 -194 -772
-221 -65 -20 -87 -22 -144 -12 -28 4 -76 11 -106 14 -30 3 -57 7 -60 9 -3 2
-30 6 -60 9 -30 4 -66 9 -80 11 -14 3 -45 7 -70 10 -148 17 -166 22 -184 50
-31 47 -129 52 -176 10 -11 -10 -28 -14 -46 -11 -16 3 -63 8 -104 11 -41 3
-91 8 -110 10 -19 2 -71 7 -115 10 -44 4 -93 8 -110 10 -16 3 -64 7 -105 10
-41 4 -91 8 -110 10 -19 2 -71 6 -115 10 -70 5 -136 10 -240 20 -16 2 -77 6
-135 10 -58 4 -121 8 -140 10 -19 2 -78 6 -130 10 -114 7 -194 13 -275 20 -33
2 -105 7 -160 10 -55 3 -134 8 -175 10 -41 3 -120 7 -175 10 -55 3 -140 7
-190 10 -211 11 -568 24 -809 30 -181 5 -1186 6 -1343 1 -96 -3 -102 -2 -113
19 -18 33 -52 48 -113 49 -64 1 -102 -17 -119 -56 -13 -27 -15 -28 -93 -29
-44 -1 -98 -2 -120 -4 -22 -1 -105 -6 -185 -9 -80 -4 -170 -9 -200 -11 -30 -2
-98 -7 -150 -10 -52 -3 -120 -7 -150 -10 -30 -2 -91 -6 -135 -10 -95 -6 -189
-14 -265 -21 -30 -3 -75 -7 -100 -9 -25 -1 -72 -6 -105 -9 -33 -3 -84 -8 -112
-11 -29 -3 -67 -7 -85 -9 -18 -2 -62 -7 -98 -11 -36 -3 -99 -10 -140 -15 -41
-5 -99 -12 -129 -15 -30 -4 -63 -9 -75 -11 -12 -2 -41 -6 -66 -9 -25 -3 -61
-7 -80 -10 -19 -3 -53 -7 -75 -10 -22 -2 -53 -6 -70 -9 -16 -2 -52 -7 -80 -11
-27 -3 -57 -8 -65 -10 -8 -2 -37 -6 -65 -10 -60 -7 -50 -6 -310 -51 -236 -41
-297 -52 -415 -75 -43 -9 -287 -62 -380 -84 -192 -45 -270 -64 -278 -69 -6 -4
-15 16 -22 49 -7 33 -19 60 -30 68 -27 19 -121 21 -162 4 -52 -22 -62 -41 -63
-117 0 -38 -5 -73 -10 -78 -6 -5 -50 -19 -100 -31 -49 -12 -101 -26 -115 -31
-14 -4 -65 -20 -115 -35 -137 -41 -337 -112 -460 -163 -100 -42 -310 -143
-360 -174 -11 -7 -56 -35 -100 -62 -150 -92 -296 -217 -383 -330 -61 -79 -66
-87 -112 -182 -48 -99 -69 -175 -77 -276 l-6 -77 -16 32 c-9 17 -29 38 -46 47
-16 8 -32 16 -35 18 -2 2 -6 69 -7 150 -2 83 -8 156 -14 169 -33 64 -224 63
-259 -2 -9 -16 -13 -72 -14 -172 l-1 -148 -30 -5 c-37 -6 -55 -39 -55 -101 0
-26 -7 -63 -15 -82 -8 -20 -17 -67 -19 -105 -2 -43 -10 -79 -20 -93 -19 -28
-22 -125 -5 -213 6 -32 28 -97 51 -144 22 -48 49 -107 60 -132 11 -25 33 -70
48 -101 25 -50 28 -69 29 -162 1 -97 0 -107 -19 -117 -11 -6 -20 -19 -20 -30
0 -32 39 -49 116 -51 l70 -1 27 -54 26 -54 -42 -1 c-83 -2 -157 13 -157 32 0
13 -41 37 -72 43 -44 8 -91 -13 -127 -55 -59 -69 -86 -228 -86 -504 1 -128 10
-289 20 -344 1 -9 6 -38 9 -64 4 -27 9 -56 10 -65 29 -160 35 -180 70 -219 6
-6 29 -33 51 -59 225 -272 393 -363 679 -367 l116 -2 1 -75 c0 -41 2 -158 4
-260 2 -102 6 -348 9 -547 l6 -363 -47 -1 c-154 -2 -314 -35 -437 -91 -294
-134 -456 -420 -478 -845 -1 -24 -4 -43 -7 -44 -4 -1 -39 -2 -79 -4 -152 -6
-174 -21 -181 -122 -1 -6 -16 -11 -34 -11 -17 0 -78 0 -134 -1 l-101 -1 -24
-37 c-32 -52 -31 -138 1 -210 13 -29 27 -50 31 -48 8 5 279 9 284 4 9 -11 106
-225 106 -235 0 -2 -7 -4 -15 -4 -79 0 -134 -142 -93 -240 24 -57 33 -60 179
-62 l133 -1 43 -43 c34 -35 53 -45 102 -55 l61 -13 0 -56 c0 -50 -4 -61 -44
-114 -147 -197 -166 -377 -61 -586 18 -36 40 -78 48 -95 13 -25 23 -126 27
-266 0 -24 44 -49 95 -56 33 -4 56 0 90 17 l45 22 0 78 c0 76 0 78 25 78 20 0
25 -6 26 -27 3 -95 34 -184 84 -239 l42 -46 -14 -80 c-18 -109 -14 -243 9
-335 24 -97 58 -203 69 -215 5 -6 9 -16 9 -24 0 -28 110 -241 174 -336 89
-132 201 -269 302 -370 l51 -51 -4 -132 c-4 -110 -2 -136 12 -157 22 -33 92
-66 141 -66 53 1 120 33 141 68 l18 30 103 -72 c129 -90 232 -156 243 -156 5
0 9 -4 9 -10 0 -5 5 -10 11 -10 6 0 23 -8 37 -19 15 -10 50 -31 77 -45 28 -15
66 -37 85 -48 105 -62 660 -328 685 -328 3 0 24 -9 48 -19 47 -22 236 -95 342
-134 60 -22 149 -53 320 -112 64 -22 323 -102 405 -126 211 -59 420 -117 451
-123 13 -2 89 -21 169 -41 79 -20 153 -39 163 -41 34 -6 391 -84 427 -93 19
-5 103 -21 185 -37 l151 -28 -4 -32 c-12 -98 143 -162 247 -103 23 12 47 35
53 51 14 31 14 31 148 7 30 -5 66 -11 80 -14 14 -2 47 -6 73 -9 27 -3 52 -8
55 -10 4 -2 36 -7 72 -11 36 -4 74 -9 85 -11 11 -2 40 -7 65 -10 25 -3 56 -7
70 -9 14 -3 117 -16 230 -30 113 -14 221 -28 240 -30 19 -3 60 -7 90 -10 30
-3 91 -10 135 -15 44 -5 112 -12 151 -15 40 -3 89 -7 110 -10 22 -2 68 -6 104
-10 36 -3 83 -8 105 -10 22 -2 78 -6 125 -10 47 -3 112 -8 145 -11 33 -3 89
-7 125 -9 36 -2 112 -7 170 -10 58 -4 125 -9 150 -10 25 -2 115 -6 200 -10 85
-4 182 -9 215 -10 419 -22 1538 -22 1940 0 44 2 132 7 195 10 231 11 316 16
358 20 38 3 42 2 42 -19 0 -55 75 -106 154 -106 87 0 147 42 153 107 3 44 4
44 45 48 18 2 69 6 113 10 44 4 96 9 115 10 86 6 196 17 210 20 8 2 47 7 85
10 74 7 90 9 170 20 28 3 64 8 80 10 49 6 198 26 225 30 14 2 48 6 75 9 28 4
61 8 75 11 30 6 71 12 125 20 34 6 91 15 250 41 17 3 66 12 110 19 44 8 91 16
105 19 14 2 45 9 70 15 25 5 59 12 75 15 187 34 561 121 763 177 40 11 81 22
90 24 73 17 374 112 537 170 72 25 135 47 140 49 6 2 19 7 30 11 11 4 65 26
120 47 129 51 342 148 473 215 103 53 129 62 117 42 -4 -5 11 -27 33 -48 65
-63 171 -64 242 -5 l30 26 0 118 0 117 38 26 c168 111 414 343 527 497 142
195 245 438 268 633 4 30 15 59 31 77 30 37 47 113 50 228 2 95 -2 85 97 260
12 20 31 54 41 75 11 20 22 37 24 37 2 0 2 -37 1 -83 -4 -103 6 -140 43 -167
63 -45 201 -26 226 31 5 13 10 83 9 156 0 124 1 132 19 135 31 5 55 57 58 124
1 41 7 65 20 80 52 59 57 217 12 351 -18 52 -31 74 -86 149 -21 28 -36 58 -34
65 3 8 7 50 11 94 8 122 15 188 21 210 3 11 42 52 87 91 76 65 86 78 139 185
89 178 113 293 111 532 l-1 137 80 0 c53 0 92 5 114 16 33 16 84 66 114 113
14 21 23 23 105 25 l89 1 29 43 c35 53 41 110 13 141 -26 28 -72 42 -162 46
-76 3 -77 4 -127 52 -72 69 -116 111 -281 268 -138 131 -147 142 -142 170 10
46 20 50 75 26 116 -49 209 -11 301 126 75 110 274 538 250 538 -2 0 2 9 8 21
6 11 13 32 16 45 3 13 10 40 15 59 12 45 41 160 46 183 2 10 6 26 9 35 3 9 7
28 10 42 3 14 7 36 10 50 7 29 44 213 51 250 3 13 7 40 10 60 5 34 7 46 19
110 3 14 8 43 11 65 3 22 9 65 14 95 6 30 12 79 16 109 3 29 7 56 9 60 2 3 7
33 10 66 3 33 8 69 10 80 2 12 7 48 11 80 4 33 9 67 10 75 2 8 6 44 11 80 4
36 8 67 9 70 1 3 5 44 9 92 7 71 5 97 -10 145 -45 148 -134 224 -330 284 -42
13 -78 28 -79 34 -2 5 -6 27 -10 48 -8 48 -52 79 -109 75 -28 -2 -42 3 -52 16
-10 14 -27 19 -66 20 l-53 1 1 98 1 97 66 98 c73 109 133 225 148 287 22 90
28 263 15 454 -7 104 -16 128 -50 137 -23 5 -23 6 -19 151 5 159 -2 183 -55
205 -39 16 -135 12 -171 -6 -46 -25 -53 -46 -53 -187 -1 -111 -3 -129 -17
-130 -42 -2 -101 -31 -101 -50 0 -5 -4 -9 -9 -9 -5 0 -8 7 -7 16 1 9 -1 44 -6
77 -50 382 -284 712 -705 995 -73 49 -367 222 -377 222 -2 0 -64 28 -137 63
-74 35 -174 81 -224 102 -49 22 -92 40 -94 42 -3 2 -4 38 -3 81 2 75 1 79 -24
90 -30 15 -143 16 -178 2 -21 -8 -26 -16 -26 -45 0 -19 -2 -35 -4 -35 -2 0
-72 25 -157 56 -85 31 -160 57 -166 57 -7 0 -13 3 -13 7 0 4 39 13 88 20 48 7
94 14 102 15 8 1 40 6 70 10 30 4 64 9 75 11 11 3 38 7 60 9 22 3 51 7 65 10
14 2 45 7 70 10 25 3 70 10 100 15 30 5 73 12 95 15 22 3 68 10 103 16 34 5
84 12 110 15 26 3 54 7 62 9 8 2 35 7 60 10 25 3 86 12 135 20 50 8 110 17
135 20 25 3 90 13 145 21 55 9 114 17 130 19 26 4 79 12 125 20 26 4 103 15
145 20 22 3 65 10 95 15 30 5 75 12 100 15 25 3 56 8 70 10 14 3 43 7 65 10
22 2 157 22 300 44 143 22 280 42 305 46 198 27 239 43 294 107 56 65 57 96 6
296 -35 141 -61 181 -143 222 -56 28 -65 29 -151 26 -50 -3 -162 -16 -249 -30
-87 -14 -179 -28 -205 -31 -26 -4 -58 -8 -72 -11 -21 -3 -147 -22 -340 -50
-19 -3 -46 -7 -60 -10 -14 -2 -43 -7 -65 -9 -22 -3 -51 -7 -65 -10 -23 -3 -74
-11 -145 -21 -16 -2 -41 -6 -55 -9 -14 -2 -45 -7 -70 -10 -25 -3 -56 -7 -69
-10 -20 -4 -118 -18 -206 -30 -11 -2 -85 -13 -165 -24 -80 -12 -158 -24 -175
-26 -16 -3 -91 -14 -165 -25 -74 -11 -151 -23 -170 -25 -19 -3 -60 -10 -90
-15 -30 -5 -77 -12 -105 -15 -27 -3 -61 -8 -75 -10 -14 -3 -43 -7 -65 -11 -22
-3 -51 -7 -65 -10 -14 -2 -43 -7 -65 -10 -53 -7 -131 -18 -295 -43 -74 -11
-153 -23 -175 -26 -23 -3 -51 -7 -64 -10 -13 -2 -42 -6 -65 -9 -22 -3 -97 -14
-166 -25 -69 -11 -147 -23 -175 -26 -27 -4 -75 -10 -105 -15 -30 -5 -77 -12
-105 -15 -27 -4 -57 -8 -65 -10 -8 -2 -35 -7 -60 -10 -39 -5 -109 -16 -200
-30 -133 -20 -182 -25 -211 -20 -18 3 -35 7 -36 9 -2 1 48 17 109 35 106 30
155 44 318 90 36 10 97 28 135 39 39 12 169 49 290 82 121 34 231 65 245 70
22 8 95 29 125 36 6 1 217 61 470 134 253 72 465 133 470 134 65 17 111 30
165 46 66 20 412 118 440 125 8 2 71 20 140 40 69 20 139 40 155 44 205 53
444 129 480 152 85 54 105 143 56 250 -10 24 -32 73 -47 109 -33 77 -56 105
-109 132 -73 38 -149 34 -325 -18z"/>
</g>
</svg>
